Coordinates
version=1
nRows=17
nColumns=36
inDegrees=yes

Units are S.I. units (second, meters, Newtons, ...)
If the header above contains a line with 'inDegrees', this indicates whether rotational values are in degrees (yes) or radians (no).

endheader
time	pelvis_tilt	pelvis_list	pelvis_rotation	pelvis_tx	pelvis_ty	pelvis_tz	hip_flexion_r	hip_adduction_r	hip_rotation_r	knee_angle_r	knee_angle_r_beta	ankle_angle_r	subtalar_angle_r	mtp_angle_r	hip_flexion_l	hip_adduction_l	hip_rotation_l	knee_angle_l	knee_angle_l_beta	ankle_angle_l	subtalar_angle_l	mtp_angle_l	lumbar_extension	lumbar_bending	lumbar_rotation	arm_flex_r	arm_add_r	arm_rot_r	elbow_flex_r	pro_sup_r	arm_flex_l	arm_add_l	arm_rot_l	elbow_flex_l	pro_sup_l
      1.57000000	    -26.92437231	      0.23341922	     -3.41799075	     -0.38282560	      0.66031654	     -0.60614540	     86.53577313	     -2.13106380	      4.29675785	     87.85055894	      1.53328150	     23.85505007	    -19.93942604	     -7.35235633	     86.27200312	    -11.18531981	      5.54493543	     88.76628614	      1.54926396	     26.03287889	    -12.15757383	     -7.35235633	    -20.52008610	      1.91241478	      2.34547433	    -24.52541108	     -2.85606887	    -14.63768424	     18.07986940	    100.75549002	    -20.43991999	     -0.07126306	    -27.67529074	     21.07750777	     97.01180912
      1.58000000	    -27.01675507	      0.12352559	     -3.36180849	     -0.37846459	      0.65095550	     -0.60543650	     87.49389019	     -1.60880428	      4.91331960	     90.23888130	      1.57496559	     25.12067766	    -19.59488768	     -7.35791089	     87.11980607	    -11.07665656	      6.17539953	     90.74006103	      1.58371283	     27.81150315	    -11.47205285	     -7.35791089	    -21.26214448	      1.87718495	      1.71165196	    -19.88616639	     -3.70411981	    -13.16825876	     18.10014892	    100.91639411	    -16.51388385	     -0.50020497	    -28.07102264	     21.00819256	     96.80847218
      1.59000000	    -26.95812464	      0.04719450	     -3.32039396	     -0.37433159	      0.64325991	     -0.60511740	     88.23274427	     -1.17311641	      5.48714148	     92.37622883	      1.61226934	     25.55410930	    -19.82564102	     -7.35875529	     87.87322927	    -10.85163136	      6.83893126	     92.68629071	      1.61768094	     28.22304420	    -11.64848187	     -7.35875529	    -22.06396831	      1.90452018	      1.25870288	    -15.34621067	     -4.45405134	    -12.64862882	     19.41638536	    101.05180089	    -12.57825004	     -1.12536109	    -27.63786556	     21.92705910	     96.91236082
      1.60000000	    -26.82109989	      0.22788628	     -3.03863979	     -0.37041992	      0.63692568	     -0.60548680	     88.75930127	     -1.16303461	      6.22213694	     94.20107588	      1.64411893	     27.06379952	    -18.92604075	     -7.37169919	     88.38111561	    -10.26018128	      7.21234541	     94.34592088	      1.64664696	     29.08784332	    -11.00616014	     -7.37169919	    -22.73838547	      1.73676356	     -0.35323872	     -9.23870106	     -6.17205712	     -4.11401239	     17.66462761	    101.74503041	     -8.61881766	     -2.69472379	    -22.22027338	     21.00315373	     96.32085343
      1.61000000	    -27.01336816	      0.35567793	     -2.94643718	     -0.36707521	      0.63049775	     -0.60561810	     89.57867702	     -0.91335578	      6.72566670	     95.70446080	      1.67035795	     27.27542007	    -19.36456364	     -7.37225346	     89.36046200	     -9.95260922	      7.47964416	     96.00158748	      1.67554379	     29.08616758	    -11.19139918	     -7.37225346	    -22.90682695	      1.66084983	     -0.80455303	     -4.48583597	     -6.86546031	     -3.85631564	     19.25350925	    101.78944783	     -4.38788477	     -3.67580708	    -21.80497486	     22.26419188	     96.39351361
      1.62000000	    -26.82306390	      0.43907593	     -2.92669878	     -0.36382524	      0.62635246	     -0.60538318	     89.68682909	     -0.51949941	      7.12118095	     96.75177753	      1.68863708	     27.07327744	    -20.77699959	     -7.41638427	     89.74799369	     -9.83951579	      7.58996679	     97.26537848	      1.69760110	     28.36013149	    -12.01903408	     -7.41638427	    -23.43985544	      1.58899887	     -1.97633337	      1.59350862	     -8.12475176	      3.98618231	     19.16938255	     96.37624924	     -0.31633798	     -5.56565963	    -16.25533886	     23.20083422	     89.92806663
      1.63000000	    -26.35637919	      0.28009799	     -2.92661034	     -0.36062367	      0.62373847	     -0.60503442	     89.26897525	     -0.08786286	      7.26552362	     97.57670970	      1.70303486	     27.43517858	    -21.26424753	     -7.41699759	     89.72837812	     -9.84509981	      7.90620340	     98.35206622	      1.71656738	     28.21031539	    -12.06706856	     -7.41699759	    -24.24868121	      1.76507457	     -2.22421768	      6.71118622	     -8.70782901	      4.11624074	     21.07665074	     96.46134850	      4.27656026	     -6.80893804	    -15.69252005	     24.83854569	     90.12824280
      1.64000000	    -26.03242562	      0.03284343	     -2.51423696	     -0.35760176	      0.62184532	     -0.60540852	     88.90084556	     -0.19615765	      7.18054043	     98.20194112	      1.71394720	     27.74504186	    -21.88748732	     -7.41770599	     89.62027923	     -9.30307476	      8.39665743	     98.98595429	      1.72763082	     28.23386015	    -12.18855464	     -7.41770599	    -24.65821880	      2.19703469	     -2.45382592	     11.62695818	     -9.28526212	      4.25335911	     23.10103684	     96.54272408	      9.03648621	     -7.98040795	    -14.89872665	     26.76841876	     90.37239971
      1.65000000	    -26.38177540	     -0.05579672	     -2.29927774	     -0.35453832	      0.61895118	     -0.60534092	     89.36372697	     -0.05981204	      7.33574260	     98.87392405	      1.72567552	     27.85798493	    -22.06566806	     -7.41781203	     90.11905006	     -9.07241447	      8.60127406	     99.59270758	      1.73822066	     28.36881419	    -12.27399661	     -7.41781203	    -23.72245277	      2.37413049	     -2.47600832	     16.28818692	     -9.73969338	      4.20185531	     24.63362793	     96.62351089	     13.66905231	     -9.07300521	    -14.68246608	     28.38742303	     90.55130318
      1.66000000	    -25.70506258	     -0.69178902	     -1.81099679	     -0.35077905	      0.61880520	     -0.60600538	     88.37562711	     -0.20945784	      6.90983163	     99.34060101	      1.73382057	     27.70378498	    -23.24538937	     -7.42056096	     89.36924447	     -8.52259249	      9.42226655	    100.03277737	      1.74590132	     28.97754124	    -12.35691225	     -7.42056096	    -24.01171855	      3.22584226	     -2.45476029	     20.60330204	    -10.53721746	      3.39325234	     28.34820290	     96.55507865	     18.18889787	    -10.20628663	    -13.54275213	     31.38295191	     91.04108203
      1.67000000	    -25.34582299	     -0.78282003	     -1.49299994	     -0.34715397	      0.61882899	     -0.60633911	     87.80349649	     -0.32382648	      7.03182111	     99.85459082	      1.74279138	     27.82535117	    -23.36320123	     -7.42118502	     88.77106708	     -8.20630183	      9.52816415	    100.23966103	      1.74951213	     29.20517380	    -12.39366700	     -7.42118502	    -23.43382799	      3.40221806	     -2.53830644	     25.44154188	    -10.93721658	      2.87080217	     30.12786730	     96.59418216	     23.12394222	    -11.08409110	    -13.58336072	     33.17570119	     91.22140832
      1.68000000	    -24.93384028	     -0.49392233	     -1.17277986	     -0.34420523	      0.61904971	     -0.60669130	     87.32869566	     -0.66003838	      7.35293983	    100.39741718	      1.75226549	     28.06966925	    -23.41681908	     -7.42198605	     88.14075400	     -7.84404603	      9.24103283	    100.45051458	      1.75319221	     29.28942001	    -12.31669086	     -7.42198605	    -22.68272459	      3.15854708	     -2.65650702	     30.39189311	    -11.20224281	      1.95789462	     31.99231111	     96.67756849	     28.36670902	    -11.84888554	    -13.93208129	     35.15527043	     91.37823765
      1.69000000	    -24.68686738	     -0.08529079	     -0.91079820	     -0.34188310	      0.61953316	     -0.60695536	     87.06409485	     -1.07790121	      7.58758949	    100.69398874	      1.75744164	     28.43214625	    -23.22773493	     -7.42617052	     87.67198244	     -7.59651830	      8.73892826	    100.50468592	      1.75413768	     29.32585312	    -12.25589572	     -7.42617052	    -21.62190239	      2.74072866	     -2.52249502	     35.13903953	    -11.07039843	     -1.41265517	     34.61447357	     97.31560762	     33.91125747	    -12.07860041	    -15.19768322	     37.59105789	     91.59690420
      1.70000000	    -24.24984874	      0.00450911	     -0.79860628	     -0.33962897	      0.62118361	     -0.60705375	     86.39443851	     -1.22793577	      7.38582765	    100.57146537	      1.75530320	     28.02991160	    -24.26703229	     -7.42987011	     87.00184911	     -7.64855331	      8.50471101	    100.51665377	      1.75434656	     29.43656714	    -11.94191547	     -7.42987011	    -20.62798697	      2.65170675	     -2.16323354	     40.63750941	    -11.55398476	     -1.39378293	     35.91161337	     98.36289511	     39.54337455	    -12.72561917	    -13.53946358	     39.48261393	     92.08940560
      1.71000000	    -23.68383950	     -0.03160938	     -0.71252086	     -0.33728937	      0.62388963	     -0.60672935	     85.41278890	     -1.23140342	      7.01929682	    100.29211662	      1.75042765	     28.12680866	    -24.86756853	     -7.43059105	     86.15906788	     -7.83194215	      8.37240770	    100.40538345	      1.75240453	     29.21976689	    -11.67996629	     -7.43059105	    -19.77394492	      2.59963200	     -1.73421684	     46.34426465	    -11.93986451	     -1.26732526	     37.28512458	     98.66482421	     45.41108948	    -13.00118314	    -12.54349203	     41.73119621	     92.42320616
      1.72000000	    -23.18229373	     -0.10085524	     -0.53932528	     -0.33510262	      0.62760158	     -0.60619723	     84.32070077	     -1.16839043	      6.86129338	     99.85161315	      1.74273941	     28.05596782	    -25.45541733	     -7.43134722	     85.25720784	     -7.78210391	      8.43164256	    100.03044913	      1.74586069	     28.95851895	    -11.44561296	     -7.43134722	    -18.92141786	      2.62759197	     -1.53446069	     52.28818772	    -12.08356530	     -0.64646651	     38.82154332	     99.05120536	     51.70936135	    -13.29691605	    -11.09743558	     43.43904564	     92.76260119
      1.73000000	    -22.70665477	     -0.27952612	     -0.32457639	     -0.33301623	      0.63232068	     -0.60567010	     83.11570419	     -1.12385313	      6.73531778	     99.31625216	      1.73339560	     27.88555410	    -25.74599988	     -7.43216417	     84.26729973	     -7.59948509	      8.67474276	     99.43070608	      1.73539320	     28.62007065	    -11.42075544	     -7.43216417	    -18.12564421	      2.78831093	     -1.44595009	     58.44919823	    -12.22338102	      0.64077332	     40.47733571	     99.50072545	     58.37170587	    -13.60089504	     -9.22998698	     44.52180653	     93.08210434
